<?xml version="1.0" encoding="utf-8"?>
<!-- Generator: Adobe Illustrator 22.1.0, SVG Export Plug-In . SVG Version: 6.00 Build 0)  -->
<svg version="1.1" id="Réteg_1" xmlns="http://www.w3.org/2000/svg" xmlns:xlink="http://www.w3.org/1999/xlink" x="0px" y="0px"
	 viewBox="0 0 637.8 169.4" style="enable-background:new 0 0 637.8 169.4;" xml:space="preserve">
<style type="text/css">
	.st0{fill:#009FE3;}
	.st1{fill:#FFFFFF;}
	.st2{fill:url(#SVGID_1_);}
</style>
<g>
	<g>
		<path d="M56.2,135c0,8.3-5,13.9-17.4,13.9c-5.3,0-8.8-0.3-11.7-0.8l6.1-34.9l0.8-4.6c2.6-0.6,6-1.1,10.9-1.1
			c8.3,0,12.6,3.1,12.6,8.8c0,5.5-2.6,9-6.7,10.9C54.3,128.5,56.2,131,56.2,135z M50.9,135.7c0-4.3-2.9-6.1-8.7-6.1h-6.8l-2.6,14.2
			c1.5,0.3,3.5,0.4,6.3,0.4C47.6,144.3,50.9,140.8,50.9,135.7z M38.5,112.1l-2.3,13h6.9c7.2,0,9.5-4.3,9.5-7.8
			c0-3.5-2.3-5.5-8.1-5.5C42.4,111.8,40.5,111.9,38.5,112.1z"/>
		<path d="M103.2,120.4l-4.9,28c-1.5,0.3-3,0.3-4.6,0l0.4-4c-2.5,2.7-5.7,4.5-9.7,4.5c-5.8,0-10-4-10-11.4
			c0-11.4,7.8-19.9,18.1-19.9C97.5,117.7,101.1,118.9,103.2,120.4z M97.7,123.3c-1.3-0.5-2.9-0.9-5.8-0.9c-7.2,0-12.1,6.2-12.1,14.3
			c0,4.8,2.1,7.7,5.8,7.7c4.3,0,8-3.5,9.8-7.9L97.7,123.3z"/>
		<path d="M120.8,143.2c0-0.4,0-0.9,0.1-1.4l6.2-34.9c0.9-0.2,1.8-0.3,2.6-0.3s1.6,0.1,2.4,0.3l-6.1,34.1c-0.1,0.3-0.1,0.6-0.1,0.8
			c0,1.6,1,2.4,2.4,2.4c1.1,0,1.9-0.4,3.2-1.4c1.3,0.7,2.2,2.1,2.3,3.4c-1.4,1.4-4,2.6-6.7,2.6C123.6,148.7,120.8,146.9,120.8,143.2
			z"/>
		<path d="M179.7,120.4l-4.9,28c-1.5,0.3-3,0.3-4.6,0l0.4-4c-2.5,2.7-5.7,4.5-9.7,4.5c-5.8,0-10-4-10-11.4
			c0-11.4,7.8-19.9,18.1-19.9C174,117.7,177.6,118.9,179.7,120.4z M174.2,123.3c-1.3-0.5-2.9-0.9-5.8-0.9c-7.2,0-12.1,6.2-12.1,14.3
			c0,4.8,2.1,7.7,5.8,7.7c4.3,0,8-3.5,9.8-7.9L174.2,123.3z"/>
		<path d="M204.8,138c-0.2,0.9-0.3,1.6-0.3,2.3c0,3.4,1.9,4.2,4.5,4.2c1.9,0,4.1-1.3,5-2c1.4,0.9,2.1,2.3,2.1,3.6
			c-1.7,1.3-4.6,2.9-8.2,2.9c-5,0-8.5-2.1-8.5-7.3c0-0.8,0.1-1.6,0.3-2.6l2.8-16.1h-4.8V122c0-1.4,0.4-2.5,0.8-3.2h4.8l1.4-8
			c0.9-0.2,1.7-0.3,2.6-0.3c0.8,0,1.6,0.1,2.4,0.3l-1.4,8h10.7c0.1,0.2,0.1,0.6,0.1,0.9c0,1.1-0.4,2.4-0.8,3.2h-10.8L204.8,138z"/>
		<path d="M233.8,136.2c0-11.3,6.5-18.6,15.7-18.6c8,0,12.4,5.3,12.4,12.8c0,11.1-6.3,18.5-15.5,18.5
			C238.1,148.9,233.8,143.1,233.8,136.2z M256.8,131.3c0-5.8-2.9-9.2-7.9-9.2c-6.3,0-9.9,6-9.9,13c0,5.1,2.6,9.3,8.1,9.3
			C253,144.5,256.8,138.7,256.8,131.3z"/>
		<path d="M308.1,127.2c0,0.8-0.1,1.6-0.3,2.5l-3.3,18.4c-0.8,0.2-1.8,0.3-2.6,0.3c-0.8,0-1.6-0.1-2.4-0.3l2.9-16.6
			c0.2-0.9,0.3-1.8,0.3-2.5c0-4.4-2.6-6.6-7.2-6.6c-3.6,0-5.9,0.6-7.3,1.1l-4.1,24.6c-0.9,0.2-1.8,0.3-2.6,0.3s-1.6-0.1-2.4-0.3
			l4.8-27.7c3.9-2,8.2-2.8,12.1-2.8C304.8,117.7,308.1,121.9,308.1,127.2z"/>
	</g>
</g>
<g>
	<g>
		<path class="st0" d="M81.8,40.9c0,17.2-12.4,25.7-30.3,25.7H46v18.3c-2.9,0.5-6,0.7-9,0.7s-6.2-0.2-9.5-0.7V19.1
			c6.7-1.3,15.3-2.2,22.9-2.2C73.5,17,81.8,26.5,81.8,40.9z M62.9,41.1c0-5.2-3.5-8.7-11.5-8.7c-1.9,0-3.6,0-5.3,0.1v18.2h5.4
			C59.8,50.7,62.9,46.4,62.9,41.1z"/>
		<path class="st0" d="M85.4,60.5c0-16.3,11.6-26.3,27.5-26.3c16,0,27.4,9.7,27.4,26.3c0,16.1-11.4,26.2-27.4,26.2
			S85.4,77.4,85.4,60.5z M121.9,60.5c0-6.9-3.1-11.2-8.9-11.2c-5.9,0-9,4.3-9,11.2c0,6.8,3.2,11.1,9,11.1
			C118.8,71.6,121.9,67.3,121.9,60.5z"/>
		<path class="st0" d="M146,60.5c0-16.3,11.6-26.3,27.5-26.3c16,0,27.4,9.7,27.4,26.3c0,16.1-11.4,26.2-27.4,26.2S146,77.4,146,60.5
			z M182.4,60.5c0-6.9-3.1-11.2-8.9-11.2c-5.9,0-9,4.3-9,11.2c0,6.8,3.2,11.1,9,11.1C179.4,71.6,182.4,67.3,182.4,60.5z"/>
		<path class="st0" d="M208.7,84.9V17.7c2.9-0.5,6.1-0.7,9.1-0.7s6.3,0.2,9.6,0.7v67.2c-2.9,0.5-6.1,0.7-9.1,0.7
			S211.9,85.4,208.7,84.9z"/>
		<path d="M239.1,59.2c0-1.4,0.1-3,0.6-4.4h26.5c0.4,1.4,0.6,2.9,0.6,4.4c0,1.5-0.2,3-0.6,4.4h-26.5
			C239.2,62.3,239.1,60.7,239.1,59.2z"/>
		<path d="M345.9,19.2v65.7c-2.1,0.4-3.7,0.6-5.4,0.6c-1.9,0-3.5-0.2-5.7-0.6V48.8l0.5-9.6l-1.7,4.9l-15,34.7
			c-2,0.3-3.6,0.4-5.1,0.4c-1.4,0-3-0.1-5-0.4L292.8,44l-1.8-4.6l0.4,9.5v36.1c-1.9,0.4-3.8,0.6-5.4,0.6c-1.8,0-3.4-0.2-5.4-0.6
			V19.2c1.6-0.4,3.6-0.8,6.3-0.8c1.9,0,3.7,0.1,5.7,0.5l20.4,44.5l1.2,3.3l1-3.3l19.1-44.5c1.8-0.3,3.2-0.4,5.6-0.4
			C341.8,18.5,343.7,18.7,345.9,19.2z"/>
		<path d="M400.9,55v26.6c-5.8,2.8-14.3,4.8-22.5,4.8c-14.4,0-21.5-6.1-21.5-15.8c0-10.1,8.7-15.5,20.6-15.4c4.6,0,8.6,0.6,12,1.9
			v-2.8c0-5.9-3.9-9.4-11.7-9.4c-5.9,0-10.8,2.3-13.6,4.3c-2.9-1.4-4.8-4.1-5.3-7.5c2.9-2.8,10.3-6.9,19.7-6.9
			C391.4,34.8,400.9,40.6,400.9,55z M379.4,77.5c3.7,0,7.1-0.6,10.1-1.5V65.5c-3.2-1.3-7-2-11.1-2c-5.8,0-9.7,2-9.7,6.6
			C368.7,74.5,372.2,77.5,379.4,77.5z"/>
		<path d="M458.6,55v29.9c-2,0.4-4,0.5-5.9,0.5c-2,0-3.8-0.1-5.9-0.5V57.8c0-8.9-4.3-12.3-11.8-12.3c-4.5,0-8.5,1.3-10.8,2.7v36.8
			c-1.8,0.4-3.9,0.5-5.9,0.5c-1.9,0-3.8-0.1-5.8-0.5V42.5c4.3-3.6,12.8-7.7,23.3-7.7C451.7,34.7,458.6,43.8,458.6,55z"/>
	</g>
</g>
<path class="st1" d="M389.6,162.2c-0.6,0-1.2,0-1.9-0.1c-13.8-1.2-21.5-15-21-27.8c0.5-12.8,8.9-21.8,20.4-21.8c2,0,4,0.3,6.1,0.8
	c2.6,0.7,5.4,1.7,8,2.6c1.2,0.4,2.7,0.9,4.1,1.4c0.9-1.7,1.7-3.5,2.2-4.6c0.4-0.8,0.7-1.5,1-2.1c2.8-5.9,8.4-9.8,15-10.4
	c0.7-0.1,1.3-0.1,2-0.1c2.3,0,4.4,0.4,6.3,1.1c1.2-0.5,2.6-0.8,4.2-1c0.5,0,1-0.1,1.5-0.1c2.9,0,5.3,0.8,7.1,1.8
	c2.4-2.6,6-5.1,11.3-5.1c0.8,0,1.6,0.1,2.3,0.2c0.1-0.1,0.1-0.1,0.2-0.2c0.1-0.1,0.2-0.2,0.3-0.4c2.3-2.5,7-7.8,14.5-7.8l0.5,0
	c1.1,0,2.2,0.1,3.2,0.2c0.5-0.9,1-1.9,1.6-2.9c0.1-0.1,9-14.3,20.3-15c1.9-0.1,8.6-0.8,15.6-3.6c2.8-1.2,7.6-5.9,9.3-8.2
	c2.2-3.5,5.6-5.9,9.5-6.6c1.8-2.5,4.5-4.8,8.2-6.4l0.9-0.4c1-1.5,2.2-2.6,3.4-3.5c0.2-0.4,0.4-0.8,0.7-1.2c2-3,5-5.2,8.4-6.2
	c2.1-2.2,5.4-4.7,10.4-4.8c0.6-0.4,1.2-0.6,1.7-0.9c0.1,0,0.1-0.1,0.2-0.1c0.7-4.5,2.6-8.4,5.6-11.2c0.4-4.1,1.8-9,5.5-12.9
	c3-3.1,7-4.8,11.1-4.8c7.1,0,11.8,4.6,14.5,8.5c11.1,1.8,22.1,4.9,28.5,14.1c6.7,9.5,8.1,31.4-16.6,49.7c-5.9,4.4-18,11.2-32.7,16.2
	c-4.2,1.4-12.1,3.4-19.2,4.7c-0.2,0.3-0.4,0.7-0.6,1c-4.8,7.5-14.5,12.3-23.9,17c-1.6,0.8-3.1,1.5-4.5,2.3
	c-8.8,4.6-37.4,17.6-62,28.5c-1.9,0.9-3,1.3-11.3,7.9c-9.3,7.3-19.7,11-30.8,11c-0.9,0-1.7,0-2.6-0.1c-7.4-0.4-11.9-1.7-15.3-2.7
	c-2.5-0.8-4-1.2-6.6-1.3c-0.6,0.2-1.5,0.7-2.2,1C400.6,159.8,395.7,162.2,389.6,162.2C389.6,162.2,389.6,162.2,389.6,162.2z"/>
<linearGradient id="SVGID_1_" gradientUnits="userSpaceOnUse" x1="489.1179" y1="61.2741" x2="512.4973" y2="109.007">
	<stop  offset="0" style="stop-color:#8ACEF3"/>
	<stop  offset="1" style="stop-color:#009FE3"/>
</linearGradient>
<path class="st2" d="M405.3,144.2c10.1-0.1,11.7,3.4,23.5,4c6.7,0.3,15.5-0.9,24.8-8.2c9.3-7.3,11-8.1,14-9.5
	c25.4-11.3,53.1-23.9,61.3-28.2c8.2-4.3,20-9.3,23.5-14.8c1.7-2.7,1.1-5.5,5.1-6c7.1-1,17.2-3.4,21.5-4.9
	c13.5-4.5,24.4-10.8,29.2-14.3C627,48.3,625,34.4,622,30.2c-4-5.7-12.7-7.7-21.6-9.1c-2.8-0.4-4.9-1.1-5.6-2.6
	c-0.7-1.5-4.2-7.9-7.4-4.6c-1.6,1.7-2.3,5.5-1.9,9c0.3,2.3-0.5,2.4-2,3c-2,0.8-3.4,2.5-3.7,5.8c-0.8,7.6-7.1,8.5-9.1,10.1
	c-1.9,1.6-2,2.5-4.2,1.4s-3,2.2-4.7,3.6c-1.7,1.3-1.2,1.2-2.2,0.6c-1-0.6-2.8,0.7-2.5,1.5c0.3,0.8,0.2,2.2-0.6,3.2s-1.8,0.8-2.8,0.7
	c-1-0.2-1,1.1-1.2,2c-0.2,0.9-3.1,2-6,3.3c-2.9,1.3-3.9,2.9-3,5.2s2.5,1.5,4.4,2.1c1.9,0.6,4.1,3.8,4.3,6s1.3,4.4-0.3,6.3
	c-1.6,1.8-4.5,1.8-5.5,0.2c-1-1.7-2.7-1.1-3.4-3.1s-2.9,0.7-3.4-3.8c-0.3-3.4-2.9-3.3-3.1-4.7c-0.3-1.4-1.3-1.3-2-0.1
	c-0.7,1.2-8,10.1-15.1,13c-8.8,3.6-17.1,4.4-19.6,4.6c-2.5,0.2-7.8,5-10.3,9.1c-1.9,3-2.4,5.7-2.9,7.6c-0.5,1.9-1.9,1.7-4,1.7
	c-1.6,0-4.9-0.4-9.1-0.6c-2.5-0.1-5.1,3.8-6.4,4.9c-1.3,1.1-3.5,4.5-10.6,3.3c-3.9-0.7-4.4,8.8-10.5,8.2c-5-0.5-6-5.2-8.6-4.9
	c-2.5,0.3-2.7,3.3-5.6,3.3c-2.9,0-2.1-3.8-7-3.3c-2.2,0.2-3.8,1.4-4.7,3.2c-2,4.2-5.8,13.5-9.8,14.8c-3.5,1.2-13.2-3.3-20.4-5.2
	c-14.2-3.9-13,22.6-1,23.7C394.9,149.9,400.6,144.2,405.3,144.2z"/>
<path d="M559.4,65.7c-1.7,0-3.1-1-3.1-2.3V34.9c0-1.2,0-2.3-0.3-3.3c-0.9-4.1-4.1-7.1-6.8-6.5c-2.1,0.5-3.6,2.7-3.6,5.2v9.5
	c0,1.3-1.4,2.3-3.1,2.3c-1.7,0-3.1-1-3.1-2.3v-9.5c0-5.4,3.6-10.2,8.4-11.3c6.2-1.4,12.6,3.6,14.3,11.2c0.4,1.7,0.4,3.2,0.4,4.7
	v28.4C562.5,64.6,561.1,65.7,559.4,65.7z"/>
<path d="M586.5,53.4c-1.7,0-3.1-1-3.1-2.3V22.6c0-1.2,0-2.3-0.3-3.3c-0.9-4.2-4.1-7.1-6.8-6.5c-2.1,0.5-3.6,2.7-3.6,5.2v9.5
	c0,1.3-1.4,2.3-3.1,2.3c-1.7,0-3.1-1-3.1-2.3V18c0-5.4,3.6-10.2,8.4-11.3c6.2-1.4,12.6,3.6,14.3,11.2c0.4,1.7,0.4,3.2,0.4,4.7V51
	C589.6,52.3,588.2,53.4,586.5,53.4z"/>
<rect x="558.1" y="38" transform="matrix(0.9105 -0.4136 0.4136 0.9105 34.7194 240.5404)" width="29.8" height="4.2"/>
<path d="M542.5,43.3c-2.4,0-4.4-1.5-4.4-3.3v1.7c0,1.8,2,3.3,4.4,3.3c2.4,0,4.4-1.5,4.4-3.3V40C546.9,41.8,544.9,43.3,542.5,43.3z"
	/>
<path d="M569.6,30.8c-2.4,0-4.4-1.5-4.4-3.3v1.7c0,1.8,2,3.3,4.4,3.3c2.4,0,4.4-1.5,4.4-3.3v-1.7C574,29.3,572,30.8,569.6,30.8z"/>
<g>
	<path class="st1" d="M562.5,63.3c0.1,0.7-0.4,1.5-1,1.9c-0.6,0.4-1.4,0.6-2.1,0.7c-0.7,0-1.5-0.2-2.1-0.6c-0.6-0.4-1.1-1.2-1-1.9
		c0.1,0.7,0.6,1.3,1.2,1.6c0.6,0.3,1.3,0.5,2,0.5c0.7,0,1.4-0.2,2-0.5C562,64.6,562.4,64.1,562.5,63.3z"/>
</g>
<g>
	<path class="st1" d="M567.3,63.3c0,0.9-0.2,1.8-0.7,2.6c-0.5,0.8-1.2,1.5-1.9,2c-1.5,1-3.4,1.5-5.3,1.5c-1.8,0-3.7-0.5-5.3-1.5
		c-0.8-0.5-1.4-1.2-1.9-2c-0.5-0.8-0.7-1.7-0.7-2.6c0.1,1.8,1.3,3.4,2.8,4.3c1.5,0.9,3.3,1.4,5.1,1.4c1.8,0,3.6-0.4,5.1-1.4
		C566,66.7,567.2,65.2,567.3,63.3z"/>
</g>
<g>
	<path class="st1" d="M594.4,51c0,0.9-0.2,1.8-0.7,2.6c-0.5,0.8-1.2,1.5-1.9,2c-1.5,1-3.4,1.5-5.3,1.5c-1.8,0-3.7-0.5-5.3-1.5
		c-0.8-0.5-1.4-1.2-1.9-2c-0.5-0.8-0.7-1.7-0.7-2.6c0.1,1.8,1.3,3.4,2.8,4.3c1.5,0.9,3.3,1.4,5.1,1.4c1.8,0,3.6-0.4,5.1-1.4
		C593.1,54.4,594.3,52.9,594.4,51z"/>
</g>
<g>
	<path class="st1" d="M589.6,51c0.1,0.7-0.4,1.5-1,1.9c-0.6,0.4-1.4,0.6-2.1,0.7c-0.7,0-1.5-0.2-2.1-0.6c-0.6-0.4-1.1-1.2-1-1.9
		c0.1,0.7,0.6,1.3,1.2,1.6c0.6,0.3,1.3,0.5,2,0.5c0.7,0,1.4-0.2,2-0.5C589.1,52.3,589.5,51.8,589.6,51z"/>
</g>
<rect x="558.1" y="50.7" transform="matrix(0.9105 -0.4136 0.4136 0.9105 29.479 241.6748)" width="29.8" height="4.2"/>
<path d="M615,71.6c-5.8,4.3-17.8,11.1-32.4,16c-4.2,1.4-12.4,3.5-19.6,4.7c-0.2,0.5-0.5,0.9-0.8,1.4c-4.6,7.2-14.2,12-23.4,16.6
	c-1.6,0.8-3.1,1.5-4.5,2.3c-8.7,4.5-37.4,17.6-61.9,28.5c-2,0.9-3.1,1.4-11.6,8c-9.1,7.1-19.2,10.7-30,10.7c-0.9,0-1.7,0-2.5-0.1
	c-7.2-0.4-11.5-1.7-15-2.7c-2.6-0.8-4.2-1.3-7.2-1.3c-0.6,0.2-1.7,0.8-2.5,1.2c-3.5,1.7-8.2,4.1-14,4.1c0,0,0,0,0,0
	c-0.6,0-1.2,0-1.8-0.1c-12-1-19.1-12.2-19.8-23.4c0,0.2,0,0.5-0.1,0.7c-0.5,12.2,6.8,25.4,19.9,26.5c0.6,0,1.2,0.1,1.8,0.1
	c0,0,0,0,0,0c5.8,0,10.6-2.4,14-4.1c0.8-0.4,1.8-0.9,2.5-1.2c3,0,4.6,0.5,7.2,1.3c3.5,1,7.8,2.3,15,2.7c0.8,0,1.7,0.1,2.5,0.1
	c10.8,0,20.9-3.6,30-10.7c8.5-6.6,9.6-7.1,11.6-8c24.5-10.9,53.2-23.9,61.9-28.5c1.4-0.7,3-1.5,4.5-2.3c9.3-4.6,18.8-9.4,23.4-16.6
	c0.3-0.5,0.6-1,0.8-1.4c7.2-1.3,15.4-3.3,19.6-4.7c14.6-4.9,26.6-11.7,32.4-16c16.4-12.2,21-25.8,20.3-36.2
	C634.7,49,629.5,60.8,615,71.6z"/>
</svg>
