<?xml version="1.0" encoding="utf-8"?>
<!-- Generator: Adobe Illustrator 22.1.0, SVG Export Plug-In . SVG Version: 6.00 Build 0)  -->
<svg version="1.1" id="Réteg_1" xmlns="http://www.w3.org/2000/svg" xmlns:xlink="http://www.w3.org/1999/xlink" x="0px" y="0px"
	 viewBox="0 0 275.8 169.4" style="enable-background:new 0 0 275.8 169.4;" xml:space="preserve">
<style type="text/css">
	.st0{fill:url(#SVGID_1_);}
	.st1{fill:#FFFFFF;}
</style>
<linearGradient id="SVGID_1_" gradientUnits="userSpaceOnUse" x1="127.3522" y1="61.6824" x2="151.7868" y2="111.5696">
	<stop  offset="0" style="stop-color:#FFFFFF"/>
	<stop  offset="1" style="stop-color:#8ACEF3"/>
</linearGradient>
<path class="st0" d="M43.3,144.2c10.1-0.1,11.7,3.4,23.5,4c6.7,0.3,15.5-0.9,24.8-8.2s11-8.1,14-9.5c25.4-11.3,53.1-23.9,61.3-28.2
	c8.2-4.3,20-9.3,23.5-14.8c1.7-2.7,1.1-5.5,5.1-6c7.1-1,17.2-3.4,21.5-4.9c13.5-4.5,24.4-10.8,29.2-14.3C265,48.3,263,34.4,260,30.2
	c-4-5.7-12.7-7.7-21.6-9.1c-2.8-0.4-4.9-1.1-5.6-2.6c-0.7-1.5-4.2-7.9-7.4-4.6c-1.6,1.7-2.3,5.5-1.9,9c0.3,2.3-0.5,2.4-2,3
	c-2,0.8-3.4,2.5-3.7,5.8c-0.8,7.6-7.1,8.5-9.1,10.1c-1.9,1.6-2,2.5-4.2,1.4s-3,2.2-4.7,3.6c-1.7,1.3-1.2,1.2-2.2,0.6
	c-1-0.6-2.8,0.7-2.5,1.5s0.2,2.2-0.6,3.2s-1.8,0.8-2.8,0.7c-1-0.2-1,1.1-1.2,2s-3.1,2-6,3.3s-3.9,2.9-3,5.2c0.9,2.3,2.5,1.5,4.4,2.1
	s4.1,3.8,4.3,6s1.3,4.4-0.3,6.3c-1.6,1.8-4.5,1.8-5.5,0.2c-1-1.7-2.7-1.1-3.4-3.1s-2.9,0.7-3.4-3.8c-0.3-3.4-2.9-3.3-3.1-4.7
	c-0.3-1.4-1.3-1.3-2-0.1c-0.7,1.2-8,10.1-15.1,13c-8.8,3.6-17.1,4.4-19.6,4.6s-7.8,5-10.3,9.1c-1.9,3-2.4,5.7-2.9,7.6
	s-1.9,1.7-4,1.7c-1.6,0-4.9-0.4-9.1-0.6c-2.5-0.1-5.1,3.8-6.4,4.9s-3.5,4.5-10.6,3.3c-3.9-0.7-4.4,8.8-10.5,8.2
	c-5-0.5-6-5.2-8.6-4.9c-2.5,0.3-2.7,3.3-5.6,3.3s-2.1-3.8-7-3.3c-2.2,0.2-3.8,1.4-4.7,3.2c-2,4.2-5.8,13.5-9.8,14.8
	c-3.5,1.2-13.2-3.3-20.4-5.2c-14.2-3.9-13,22.6-1,23.7C32.9,149.9,38.6,144.2,43.3,144.2z"/>
<path d="M197.4,65.7c-1.7,0-3.1-1-3.1-2.3V34.9c0-1.2,0-2.3-0.3-3.3c-0.9-4.1-4.1-7.1-6.8-6.5c-2.1,0.5-3.6,2.7-3.6,5.2v9.5
	c0,1.3-1.4,2.3-3.1,2.3c-1.7,0-3.1-1-3.1-2.3v-9.5c0-5.4,3.6-10.2,8.4-11.3c6.2-1.4,12.6,3.6,14.3,11.2c0.4,1.7,0.4,3.2,0.4,4.7
	v28.4C200.5,64.6,199.1,65.7,197.4,65.7z"/>
<path d="M224.5,53.4c-1.7,0-3.1-1-3.1-2.3V22.6c0-1.2,0-2.3-0.3-3.3c-0.9-4.2-4.1-7.1-6.8-6.5c-2.1,0.5-3.6,2.7-3.6,5.2v9.5
	c0,1.3-1.4,2.3-3.1,2.3c-1.7,0-3.1-1-3.1-2.3V18c0-5.4,3.6-10.2,8.4-11.3c6.2-1.4,12.6,3.6,14.3,11.2c0.4,1.7,0.4,3.2,0.4,4.7V51
	C227.6,52.3,226.2,53.4,224.5,53.4z"/>
<rect x="196.1" y="38" transform="matrix(0.9105 -0.4136 0.4136 0.9105 2.3022 90.863)" width="29.8" height="4.2"/>
<path d="M180.5,43.3c-2.4,0-4.4-1.5-4.4-3.3v1.7c0,1.8,2,3.3,4.4,3.3s4.4-1.5,4.4-3.3V40C184.9,41.8,182.9,43.3,180.5,43.3z"/>
<path d="M207.6,30.8c-2.4,0-4.4-1.5-4.4-3.3v1.7c0,1.8,2,3.3,4.4,3.3s4.4-1.5,4.4-3.3v-1.7C212,29.3,210,30.8,207.6,30.8z"/>
<g>
	<path class="st1" d="M200.5,63.3c0.1,0.7-0.4,1.5-1,1.9c-0.6,0.4-1.4,0.6-2.1,0.7c-0.7,0-1.5-0.2-2.1-0.6s-1.1-1.2-1-1.9
		c0.1,0.7,0.6,1.3,1.2,1.6c0.6,0.3,1.3,0.5,2,0.5s1.4-0.2,2-0.5C200,64.6,200.4,64.1,200.5,63.3z"/>
</g>
<g>
	<path class="st1" d="M227.6,51c0.1,0.7-0.4,1.5-1,1.9s-1.4,0.6-2.1,0.7c-0.7,0-1.5-0.2-2.1-0.6c-0.6-0.4-1.1-1.2-1-1.9
		c0.1,0.7,0.6,1.3,1.2,1.6c0.6,0.3,1.3,0.5,2,0.5s1.4-0.2,2-0.5C227.1,52.3,227.5,51.8,227.6,51z"/>
</g>
<rect x="196.1" y="50.7" transform="matrix(0.9105 -0.4136 0.4136 0.9105 -2.9512 91.9995)" width="29.8" height="4.2"/>
<path d="M253,71.6c-5.8,4.3-17.8,11.1-32.4,16c-4.2,1.4-12.4,3.5-19.6,4.7c-0.2,0.5-0.5,0.9-0.8,1.4c-4.6,7.2-14.2,12-23.4,16.6
	c-1.6,0.8-3.1,1.5-4.5,2.3c-8.7,4.5-37.4,17.6-61.9,28.5c-2,0.9-3.1,1.4-11.6,8c-9.1,7.1-19.2,10.7-30,10.7c-0.9,0-1.7,0-2.5-0.1
	c-7.2-0.4-11.5-1.7-15-2.7c-2.6-0.8-4.2-1.3-7.2-1.3c-0.6,0.2-1.7,0.8-2.5,1.2c-3.5,1.7-8.2,4.1-14,4.1l0,0c-0.6,0-1.2,0-1.8-0.1
	c-12-1-20.4-12.3-21.1-23.5c0,3.6,0.3,7.5,1.4,10.7c3,8.6,10.1,15.8,19.6,16.5c0.6,0,1.2,0.1,1.8,0.1l0,0c5.8,0,10.6-2.4,14-4.1
	c0.8-0.4,1.8-0.9,2.5-1.2c3,0,4.6,0.5,7.2,1.3c3.5,1,7.8,2.3,15,2.7c0.8,0,1.7,0.1,2.5,0.1c10.8,0,20.9-3.6,30-10.7
	c8.5-6.6,9.6-7.1,11.6-8c24.5-10.9,53.2-23.9,61.9-28.5c1.4-0.7,3-1.5,4.5-2.3c9.3-4.6,18.8-9.4,23.4-16.6c0.3-0.5,0.6-1,0.8-1.4
	c7.2-1.3,15.4-3.3,19.6-4.7c14.6-4.9,26.6-11.7,32.4-16c16.4-12.2,21-25.8,20.3-36.2C272.7,49,267.5,60.8,253,71.6z"/>
</svg>
